<svg xmlns="http://www.w3.org/2000/svg" xmlns:xlink="http://www.w3.org/1999/xlink" viewBox="0 0 74.1 16.69"><defs><mask id="mask" x="0" y="0" width="14.71" height="16.45" maskUnits="userSpaceOnUse"><g id="mask-2"><polygon id="path-1" points="0 0 0 16.45 14.71 16.45 14.71 0 0 0" style="fill:#fff;fill-rule:evenodd"/></g></mask><mask id="mask-2-2" x="16.97" y="0" width="3.09" height="16.45" maskUnits="userSpaceOnUse"><g id="mask-4"><polygon id="path-3" points="20.07 0 16.97 0 16.97 16.45 20.07 16.45 20.07 0" style="fill:#fff;fill-rule:evenodd"/></g></mask><mask id="mask-3" x="0" y="0" width="78.87" height="16.69" maskUnits="userSpaceOnUse"><g id="mask-6"><polygon id="path-5" points="0 16.69 78.86 16.69 78.86 0 0 0 0 16.69" style="fill:#fff;fill-rule:evenodd"/></g></mask></defs><title>Allstate_Blue</title><g id="Layer_2" data-name="Layer 2"><g id="Layer_1-2" data-name="Layer 1"><g id="Page-1"><g id="Trusted_Advisor_Wave_II_Banner_InsExpert_300x250_Frame_03-Copy-26" data-name="Trusted Advisor Wave II Banner InsExpert 300x250 Frame 03-Copy-26"><g id="Allstate_Logo_White_no_hands" data-name="Allstate Logo White no hands"><g style="mask:url(#mask)"><path id="Fill-4" d="M11.52,9.3H7.63c.25-.4,3.89-6.55,3.89-6.55ZM9.86,0,0,16.45H3.35l2.52-4.24h5.66v4.24h3.18V0Z" style="fill:#0033a0;fill-rule:evenodd"/></g><g style="mask:url(#mask-2-2)"><polygon id="Fill-7" points="16.97 0 16.97 16.45 20.07 16.45 20.07 0 16.97 0" style="fill:#0033a0;fill-rule:evenodd"/></g><g style="mask:url(#mask-3)"><polygon id="Fill-10" points="22.32 16.45 25.41 16.45 25.41 0 22.32 0 22.32 16.45" style="fill:#0033a0;fill-rule:evenodd"/></g><g style="mask:url(#mask-3)"><path id="Fill-12" d="M32.21,8.68c-1.68-.45-2-.71-2-1.44s.56-1,1.42-1a7.42,7.42,0,0,1,3.5,1l.18.1.42-2.74-.1-.05a9.32,9.32,0,0,0-4-.84A4.63,4.63,0,0,0,28.25,5a3.41,3.41,0,0,0-.91,2.44c.05,2.54,1.22,3.26,4,4,1.82.47,2.19.75,2.18,1.65s-.48,1.12-1.72,1.12a7.46,7.46,0,0,1-4-1.36l-.18-.13-.43,2.76.09,0a9.6,9.6,0,0,0,4.46,1.16,5.08,5.08,0,0,0,3.79-1.25,3.59,3.59,0,0,0,.9-2.62c0-2.72-1.36-3.37-4.17-4.12" style="fill:#0033a0;fill-rule:evenodd"/></g><g style="mask:url(#mask-3)"><path id="Fill-13" d="M43.89,13.68l-.16,0a3.11,3.11,0,0,1-.84.09,1.18,1.18,0,0,1-1.35-1.35V6.63h2.27l0-2.68H41.54V0h-3V4H36.91V6.63H38.5v6.31c0,2.5,1.26,3.72,3.85,3.72a7.68,7.68,0,0,0,1.81-.2l.13,0Z" style="fill:#0033a0;fill-rule:evenodd"/></g><g style="mask:url(#mask-3)"><path id="Fill-14" d="M49.41,14.19a1.16,1.16,0,0,1-1.23-1.26c0-1.39,1.28-2.29,3.72-2.63V13a3.57,3.57,0,0,1-2.49,1.18M50.48,3.7a11.5,11.5,0,0,0-4.53,1l-.11,0,.39,2.64.18-.08a8.71,8.71,0,0,1,3.7-.94c1.22,0,1.79.53,1.79,1.65V8.3c-4.57.48-6.79,2.1-6.79,4.94a3.18,3.18,0,0,0,3.34,3.45,4.91,4.91,0,0,0,3.65-1.62c.06.36.22,1.38.22,1.38H55V7.89C55,5,53.56,3.7,50.48,3.7" style="fill:#0033a0;fill-rule:evenodd"/></g><g style="mask:url(#mask-3)"><path id="Fill-15" d="M62.92,13.68l-.16,0a3.11,3.11,0,0,1-.84.09,1.18,1.18,0,0,1-1.35-1.35V6.63h2.27l0-2.68H60.57V0h-3V4H55.94V6.63h1.58v6.31c0,2.5,1.27,3.72,3.86,3.72a7.45,7.45,0,0,0,1.8-.2l.14,0Z" style="fill:#0033a0;fill-rule:evenodd"/></g><g style="mask:url(#mask-3)"><path id="Fill-16" d="M66.91,8.83C67.05,7,67.8,6,69,6c1.59,0,2,1.49,2.08,2.82Zm6.62,3.88a6.25,6.25,0,0,1-3.8,1.43c-1.66,0-2.69-1.17-2.87-3.2h7.21l0-.85c0-4.23-1.69-6.39-5-6.39a4.71,4.71,0,0,0-3.59,1.42,7.18,7.18,0,0,0-1.69,5.12c0,4,2.17,6.45,5.65,6.45A7.76,7.76,0,0,0,74,15.24l.07-.05-.37-2.62Z" style="fill:#0033a0;fill-rule:evenodd"/></g></g></g></g></g></g></svg>