<?xml version="1.0" encoding="utf-8"?>
<!-- Generator: Adobe Illustrator 23.0.3, SVG Export Plug-In . SVG Version: 6.00 Build 0)  -->
<svg version="1.1" id="Layer_1" xmlns="http://www.w3.org/2000/svg" xmlns:xlink="http://www.w3.org/1999/xlink" x="0px" y="0px"
	 viewBox="0 0 64 27.2" style="enable-background:new 0 0 64 27.2;" xml:space="preserve">
<style type="text/css">
	.st0{fill-rule:evenodd;clip-rule:evenodd;fill:#0033A0;}
</style>
<path class="st0" d="M61.1,20.5c-0.3,0.4-2.2,0.8-4.2,0.9c-0.5-3-3.3-5-6.3-4.6c-2.4,0.4-4.2,2.2-4.6,4.6H18.3
	c-0.4-2.7-2.7-4.7-5.4-4.6c-2.6-0.1-4.9,1.8-5.4,4.4c-4.5-0.2-4.9-1.4-5.2-2.4c-0.2-0.6-0.2-1.3-0.1-2l0.9-1.2v-0.3
	c0-0.1,0-0.9,0.1-1.9c0.4,0,0.8,0,1.2-0.1c1.1-0.3,1.5-1.1,0.9-1.8c-0.6-0.5-1.3-0.7-2-0.6c0-0.1,0-0.3,0-0.4c0-0.5,0.7-0.9,2-1.2
	l0.5-0.1c2.1-0.2,4.1-0.9,5.9-2.1c4.3-2.9,9.3-4.5,14.5-4.6c7.4-0.1,9.8,1.1,11.8,2.1s7.5,4.8,7.6,4.8l0.2,0.2H46
	c2.7,0.2,5.4,0.5,8.1,1c2,0.3,4,0.9,6,1.8c-0.8,0.2-1.3,0.8-0.9,1.4c0.6,0.8,1.5,1.3,2.5,1.2C62.1,17.1,62,19.3,61.1,20.5z M54.8,22
	c0,0.5-0.1,1-0.4,1.5c-1,1.7-3.1,2.2-4.7,1.3c-0.5-0.3-1-0.7-1.3-1.3C48.2,23,48,22.5,48,22c0-0.2,0-0.4,0.1-0.6
	c0.4-1.8,2.3-3,4.1-2.5c1.3,0.3,2.3,1.3,2.6,2.6C54.8,21.7,54.8,21.8,54.8,22z M16.3,22c0,0.5-0.1,0.9-0.3,1.3
	c-0.9,1.7-3,2.3-4.7,1.4c-0.7-0.3-1.2-0.9-1.5-1.6c-0.2-0.4-0.3-0.8-0.3-1.2c0-0.2,0-0.5,0.1-0.7c0.4-1.5,1.8-2.5,3.3-2.5
	c1.6,0,3,1.1,3.3,2.6C16.3,21.6,16.3,21.8,16.3,22z M62.5,11.9c-0.9-1.5-4.9-2.5-8-3.1c-2.7-0.5-5.4-0.8-8.1-1
	C45.3,7,40.8,3.9,38.9,3S34,0.6,26.1,0.7c-5.6,0.1-11,1.8-15.6,5c-1.5,1-3.2,1.6-5,1.8L4.9,7.6c-3.1,0.5-3.7,2-3.7,3.1
	C1.2,11.4,1,14.1,1,15l-0.8,1.1v0.2C0,17.4,0,18.5,0.3,19.5c0.9,2.5,2.9,3.5,7.3,3.7c0.6,2.4,2.8,4,5.3,4c2.4,0.1,4.5-1.5,5.2-3.7
	h28c1,2.9,4.2,4.4,7,3.4c1.6-0.6,2.9-1.8,3.4-3.4c2-0.1,5.2-0.4,6.2-1.8C64.5,19.3,64.4,14.8,62.5,11.9z M15.1,9.8l11.3,0.4
	c0.4,0,0.8-0.3,0.8-0.7c0,0,0,0,0,0l-0.7-3.9c0-0.4-0.4-0.8-0.8-0.8c0,0,0,0-0.1,0C23.4,4.9,21.1,5.3,19,6c-3.6,1.3-4.5,3-4.5,3
	C14.4,9.5,14.6,9.8,15.1,9.8z M40.9,10.6c0.5,0,0.6-0.2,0.3-0.6c-2.2-2.4-5-4.1-8.2-4.9c-1.2-0.2-2.5-0.3-3.7-0.4
	c-0.4,0-0.8,0.3-0.8,0.7c0,0,0,0,0,0l0.7,3.9c0,0.5,0.4,0.8,0.8,0.8L40.9,10.6z"/>
</svg>
